<?xml version="1.0" encoding="utf-8"?>
<!DOCTYPE svg PUBLIC "-//W3C//DTD SVG 1.1//EN" "http://www.w3.org/Graphics/SVG/1.1/DTD/svg11.dtd">
<svg version="1.1" id="レイヤー_1" xmlns="http://www.w3.org/2000/svg" xmlns:xlink="http://www.w3.org/1999/xlink" x="0px"
	 y="0px" width="264.12px" height="27.539px" viewBox="0 0 264.12 27.539" enable-background="new 0 0 264.12 27.539"
	 xml:space="preserve">
<g>
	<path fill="#F7F5F4" d="M5.328,11.555c0.719,0.287,1.583,0.504,2.484,0.65c0.936,0.179,1.907,0.322,2.88,0.466
		c3.888,0.542,7.847,1.368,7.847,5.798v3.24c0,4.462-4.14,5.83-7.919,5.83H0.828V25.09h9.756c2.628,0,5.041-0.539,5.041-3.633
		v-2.848c0-1.547-0.973-2.373-2.448-2.877c-0.721-0.252-1.585-0.434-2.484-0.577c-0.936-0.144-1.909-0.252-2.88-0.396
		C3.888,14.186,0,13.175,0,8.314V5.865c0-4.424,3.419-5.76,7.343-5.76h9.289v2.449H7.056c-2.304,0-4.141,0.973-4.141,3.527v2.197
		C2.915,10.008,3.851,10.98,5.328,11.555z"/>
	<path fill="#F7F5F4" d="M20.87,27.146l4.05-11.461h1.664l4.081,11.461h-1.291l-1.245-3.674h-4.726l-1.244,3.674H20.87z
		 M23.75,22.482h4.036l-2.011-5.971L23.75,22.482z"/>
	<path fill="#F7F5F4" d="M39.425,27.161h-6.87V15.703h1.185v10.438h5.685V27.161z"/>
	<path fill="#F7F5F4" d="M42.154,27.161h-1.2V15.703h1.2V27.161z"/>
	<path fill="#F7F5F4" d="M48.769,22.166L45.8,27.161h-1.396l3.63-5.821l-3.645-5.607h1.455l2.956,4.828l2.94-4.828h1.409l-3.63,5.64
		l3.661,5.789h-1.471L48.769,22.166z"/>
	<path fill="#F7F5F4" d="M55.252,27.504L64.973,0h3.996l9.791,27.504h-3.095l-2.988-8.818H61.336l-2.987,8.818H55.252z
		 M62.165,16.307h9.684L67.024,1.98L62.165,16.307z"/>
	<path fill="#F7F5F4" d="M83.065,20.502c0.299,0.12,0.659,0.211,1.034,0.27c0.39,0.076,0.795,0.135,1.2,0.193
		c1.62,0.229,3.271,0.571,3.271,2.417v1.351c0,1.857-1.726,2.429-3.3,2.429h-4.08v-1.02h4.065c1.094,0,2.099-0.226,2.099-1.515
		v-1.184c0-0.647-0.404-0.99-1.02-1.201c-0.3-0.105-0.661-0.182-1.036-0.24c-0.39-0.059-0.794-0.105-1.2-0.164
		c-1.635-0.24-3.255-0.662-3.255-2.687v-1.02c0-1.846,1.425-2.399,3.06-2.399h3.87v1.02h-3.99c-0.959,0-1.724,0.404-1.724,1.471
		v0.914C82.061,19.857,82.45,20.262,83.065,20.502z"/>
	<path fill="#F7F5F4" d="M92.38,20.502c0.3,0.12,0.659,0.211,1.034,0.27c0.391,0.076,0.795,0.135,1.2,0.193
		c1.62,0.229,3.271,0.571,3.271,2.417v1.351c0,1.857-1.726,2.429-3.3,2.429h-4.08v-1.02h4.065c1.094,0,2.099-0.226,2.099-1.515
		v-1.184c0-0.647-0.404-0.99-1.02-1.201c-0.3-0.105-0.661-0.182-1.036-0.24c-0.39-0.059-0.794-0.105-1.2-0.164
		c-1.635-0.24-3.255-0.662-3.255-2.687v-1.02c0-1.846,1.425-2.399,3.06-2.399h3.87v1.02H93.1c-0.959,0-1.724,0.404-1.724,1.471
		v0.914C91.375,19.857,91.765,20.262,92.38,20.502z"/>
	<path fill="#F7F5F4" d="M107.785,18.387v6.12c0,2.294-1.8,2.654-2.849,2.654h-2.161c-1.05,0-2.834-0.36-2.834-2.654v-6.12
		c0-2.309,1.784-2.684,2.834-2.684h2.161C105.984,15.703,107.785,16.078,107.785,18.387z M104.965,16.767h-2.19
		c-1.156,0-1.62,0.524-1.62,1.62v6.12c0,1.603,1.08,1.62,1.62,1.62h2.175c0.539,0,1.62-0.018,1.62-1.62v-6.12
		C106.57,17.276,106.119,16.767,104.965,16.767z"/>
	<path fill="#F7F5F4" d="M113.514,15.703h3.945v1.02h-3.75c-1.32,0-2.19,0.105-2.19,1.679v6.073c0,1.635,0.826,1.652,2.19,1.652
		h3.75v1.034h-3.945c-1.784,0-3.195-0.495-3.195-2.52v-6.407C110.319,16.195,111.729,15.703,113.514,15.703z"/>
	<path fill="#F7F5F4" d="M120.609,27.161h-1.2V15.703h1.2V27.161z"/>
	<path fill="#F7F5F4" d="M122.454,27.146l4.05-11.461h1.664l4.081,11.461h-1.291l-1.245-3.674h-4.726l-1.244,3.674H122.454z
		 M125.333,22.482h4.036l-2.011-5.971L125.333,22.482z"/>
	<path fill="#F7F5F4" d="M141.113,16.723h-3.419v10.438h-1.17V16.705h-3.421v-1.002h8.01V16.723z"/>
	<path fill="#F7F5F4" d="M150.264,16.723h-6.285v4.034h5.34v0.976h-5.34v4.409h6.285v1.02h-7.455V15.703h7.455V16.723z"/>
	<path fill="#F7F5F4" d="M153.715,20.502c0.299,0.12,0.658,0.211,1.033,0.27c0.391,0.076,0.796,0.135,1.2,0.193
		c1.62,0.229,3.271,0.571,3.271,2.417v1.351c0,1.857-1.725,2.429-3.3,2.429h-4.079v-1.02h4.064c1.094,0,2.1-0.226,2.1-1.515v-1.184
		c0-0.647-0.404-0.99-1.02-1.201c-0.301-0.105-0.661-0.182-1.036-0.24c-0.39-0.059-0.794-0.105-1.2-0.164
		c-1.635-0.24-3.254-0.662-3.254-2.687v-1.02c0-1.846,1.425-2.399,3.06-2.399h3.87v1.02h-3.99c-0.959,0-1.725,0.404-1.725,1.471
		v0.914C152.709,19.857,153.1,20.262,153.715,20.502z"/>
	<path fill="#F7F5F4" d="M161.172,27.504L170.893,0h3.996l9.791,27.504h-3.096l-2.988-8.818h-11.34l-2.987,8.818H161.172z
		 M168.084,16.307h9.685L172.944,1.98L168.084,16.307z"/>
	<path fill="#F7F5F4" d="M190.56,22.392h-2.04v4.77h-1.2V15.703h5.024c1.262,0,2.851,0.463,2.851,2.669v1.333
		c0,1.652-1.095,2.613-2.595,2.625c0.57,0.24,0.96,0.917,1.244,1.518l1.545,3.313h-1.319l-1.171-2.745
		C192.405,23.247,191.834,22.392,190.56,22.392z M193.981,19.811v-1.453c0-1.037-0.556-1.635-1.637-1.635h-3.824v4.711h3.84
		C193.409,21.434,193.981,20.83,193.981,19.811z"/>
	<path fill="#F7F5F4" d="M200.955,15.703h3.944v1.02h-3.75c-1.319,0-2.189,0.105-2.189,1.679v6.073c0,1.635,0.826,1.652,2.189,1.652
		h3.75v1.034h-3.944c-1.784,0-3.194-0.495-3.194-2.52v-6.407C197.76,16.195,199.17,15.703,200.955,15.703z"/>
	<path fill="#F7F5F4" d="M214.754,27.161h-1.199v-5.429h-5.49v5.429h-1.199V15.703h1.199v5.068h5.49v-5.068h1.199V27.161z"/>
	<path fill="#F7F5F4" d="M218.685,27.161h-1.2V15.703h1.2V27.161z"/>
	<path fill="#F7F5F4" d="M228.374,16.723h-3.419v10.438h-1.171V16.705h-3.42v-1.002h8.01V16.723z"/>
	<path fill="#F7F5F4" d="M237.524,16.723h-6.283v4.034h5.339v0.976h-5.339v4.409h6.283v1.02h-7.454V15.703h7.454V16.723z"/>
	<path fill="#F7F5F4" d="M242.385,15.703h3.944v1.02h-3.75c-1.319,0-2.19,0.105-2.19,1.679v6.073c0,1.635,0.826,1.652,2.19,1.652
		h3.75v1.034h-3.944c-1.785,0-3.195-0.495-3.195-2.52v-6.407C239.19,16.195,240.6,15.703,242.385,15.703z"/>
	<path fill="#F7F5F4" d="M255.253,16.723h-3.419v10.438h-1.17V16.705h-3.421v-1.002h8.01V16.723z"/>
	<path fill="#F7F5F4" d="M258.616,20.502c0.299,0.12,0.658,0.211,1.033,0.27c0.391,0.076,0.796,0.135,1.2,0.193
		c1.62,0.229,3.271,0.571,3.271,2.417v1.351c0,1.857-1.725,2.429-3.3,2.429h-4.079v-1.02h4.064c1.094,0,2.1-0.226,2.1-1.515v-1.184
		c0-0.647-0.404-0.99-1.02-1.201c-0.301-0.105-0.661-0.182-1.036-0.24c-0.39-0.059-0.794-0.105-1.2-0.164
		c-1.635-0.24-3.254-0.662-3.254-2.687v-1.02c0-1.846,1.425-2.399,3.06-2.399h3.87v1.02h-3.99c-0.959,0-1.725,0.404-1.725,1.471
		v0.914C257.61,19.857,258,20.262,258.616,20.502z"/>
</g>
</svg>
